# ProBuilder 4.5.2
# https://unity3d.com/unity/features/worldbuilding/probuilder
# 1/26/2024 6:15:07 PM

mtllib ./ExampleFloor.mtl
o ExampleFloor

g Cube
v 6 0 32
v -6 0 32
v 6 1 32
v -6 1 32
v -6 0 0
v -6 1 0
v 6 0 0
v 6 1 0

vt 6 0
vt -6 0
vt 6 1
vt -6 1
vt 32 0
vt 0 0
vt 32 1
vt 0 1
vt -32 0
vt -32 1
vt -6 32
vt 6 32

vn 0 0 1
vn -1 0 0
vn 0 0 -1
vn 1 0 0
vn 0 1 0
vn 0 -1 0

usemtl ProBuilderDefault
f 3/3/1 4/4/1 2/2/1 1/1/1
f 4/7/2 6/8/2 5/6/2 2/5/2
f 6/3/3 8/4/3 7/2/3 5/1/3
f 8/8/4 3/10/4 1/9/4 7/6/4
f 8/2/5 6/1/5 4/12/5 3/11/5
f 1/12/6 2/11/6 5/2/6 7/1/6

